<svg width="96" height="96" viewBox="0 0 96 96" fill="none" xmlns="http://www.w3.org/2000/svg">
<path d="M0 48C0 21.4903 21.4903 0 48 0C74.5097 0 96 21.4903 96 48C96 74.5097 74.5097 96 48 96C21.4903 96 0 74.5097 0 48Z" fill="#F5F5F5"/>
<path d="M39.8 64C43.6172 65.9581 48.0082 66.4885 52.1818 65.4955C56.3554 64.5026 60.0371 62.0516 62.5635 58.5843C65.0899 55.117 66.2948 50.8614 65.9612 46.5843C65.6275 42.3072 63.7772 38.2899 60.7436 35.2564C57.7101 32.2228 53.6928 30.3725 49.4157 30.0388C45.1386 29.7051 40.8829 30.9101 37.4156 33.4365C33.9483 35.9629 31.4974 39.6446 30.5044 43.8182C29.5115 47.9918 30.0419 52.3828 32 56.2L28 68L39.8 64Z" stroke="#007AFF" stroke-width="3" stroke-linecap="round" stroke-linejoin="round"/>
</svg>
