<svg width="12" height="12" viewBox="0 0 12 12" fill="none" xmlns="http://www.w3.org/2000/svg">
<g clip-path="url(#clip0_53_600)">
<path d="M7.9998 10.4997V9.49973C7.9998 8.96931 7.78909 8.46062 7.41403 8.08556C7.03897 7.71049 6.53027 7.49979 5.99986 7.49979H2.99994C2.46952 7.49979 1.96083 7.71049 1.58577 8.08556C1.21071 8.46062 1 8.96931 1 9.49973V10.4997" stroke="#999999" stroke-width="0.999971" stroke-linecap="round" stroke-linejoin="round"/>
<path d="M4.49988 5.49985C5.60442 5.49985 6.49982 4.60445 6.49982 3.49991C6.49982 2.39537 5.60442 1.49997 4.49988 1.49997C3.39534 1.49997 2.49994 2.39537 2.49994 3.49991C2.49994 4.60445 3.39534 5.49985 4.49988 5.49985Z" stroke="#999999" stroke-width="0.999971" stroke-linecap="round" stroke-linejoin="round"/>
<path d="M10.9997 10.4997V9.49973C10.9994 9.05661 10.8519 8.62614 10.5804 8.27593C10.3089 7.92571 9.92881 7.67557 9.49976 7.56479" stroke="#999999" stroke-width="0.999971" stroke-linecap="round" stroke-linejoin="round"/>
<path d="M7.99976 1.56494C8.42995 1.67509 8.81125 1.92528 9.08354 2.27608C9.35584 2.62687 9.50363 3.05831 9.50363 3.50239C9.50363 3.94646 9.35584 4.3779 9.08354 4.72869C8.81125 5.07949 8.42995 5.32968 7.99976 5.43983" stroke="#999999" stroke-width="0.999971" stroke-linecap="round" stroke-linejoin="round"/>
</g>
<defs>
<clipPath id="clip0_53_600">
<rect width="11.9997" height="11.9997" fill="white"/>
</clipPath>
</defs>
</svg>
